<svg width="64" height="64" viewBox="0 0 64 64" fill="none" xmlns="http://www.w3.org/2000/svg">
  <path fill-rule="evenodd" clip-rule="evenodd" d="M13 15c2-10 6-12 15-8l3 2c9 4 21 10 27 16 7 7 7 13-1 18-7 5-20 13-30 16-10 2-13 2-15-8s-1-26 1-36Zm12 4c3-5 6-6 10-1l1 1c4 5 9 11 11 16 3 5 1 8-4 9-5 2-14 3-20 2s-8-1-7-7 5-15 9-20Z" fill="#858585"/>
  <path d="M37 30c1 3 0 7-3 8-3 2-7 1-8-2-2-3-1-7 2-9 3-1 7 0 9 3Z" fill="#858585"/>
  <path d="m53 18-1 9-4-6c-2-2-6-3-11-3l-14 2-5 1 5-5 10-7c5-3 13-5 16-3s4 7 4 12Z" fill="#282828"/>
  <path d="m35 57-7-5 7-1c3 0 6-4 8-7l5-15 2-4 1 7 1 13c1 5-1 13-4 15-4 1-8 0-13-3Z" fill="#282828"/>
  <path d="m9 21 8-3-3 7 3 10 9 12 3 4-6-2-12-6C7 41 1 35 1 31c0-3 4-7 8-10Z" fill="#282828"/>
</svg>